<svg xmlns="http://www.w3.org/2000/svg" width="1200" height="320" viewBox="0 0 1200 320" font-family="Inter, 'Segoe UI', sans-serif">
  <rect width="1200" height="320" fill="#0f0e12"/>
  <text x="64" y="150" fill="#f6f8f7" font-size="72" font-weight="300" letter-spacing="-1">media toolbox</text>
  <text x="66" y="196" fill="#b2b2b2" font-size="20" font-weight="100">convert · compress · edit · download — all on your machine, no upload</text>
  <g stroke="#5b5b66" stroke-width="1.4" fill="none" stroke-linecap="round" stroke-linejoin="round" transform="translate(66,236)">
    <g transform="translate(0,0)"><rect x="0" y="0" width="34" height="24" rx="0"/><path d="M13 6l10 6-10 6z"/></g>
    <g transform="translate(60,0)"><circle cx="6" cy="18" r="5"/><circle cx="22" cy="15" r="5"/><path d="M11 18V3l16-3v15"/></g>
    <g transform="translate(120,0)"><rect x="0" y="0" width="28" height="24"/><path d="M6 18l6-7 4 5 4-5 6 9"/><circle cx="8" cy="7" r="2"/></g>
    <g transform="translate(176,0)"><path d="M16 2v6h6"/><path d="M20 24H4V2h12l6 6v16z"/></g>
    <g transform="translate(232,0)"><rect x="0" y="3" width="28" height="18" rx="0"/><path d="M11 8l7 4-7 4z"/></g>
  </g>
  <line x1="64" y1="288" x2="1136" y2="288" stroke="#2a2a30" stroke-width="1"/>
</svg>
